<?xml version="1.0" encoding="UTF-8"?>
<svg id="Camada_2" data-name="Camada 2" xmlns="http://www.w3.org/2000/svg" viewBox="0 0 388.9 201.73">
  <defs>
    <style>
      .cls-1 {
        fill: #1d1d1b;
      }
    </style>
  </defs>
  <g id="Camada_1-2" data-name="Camada 1-2">
    <g>
      <path d="M165.22,167.82l-45.29-44.84,1.66-85.53-58.65-15.78-38.2,18.44,39.86,10.14L0,136.27l194.42,65.43v-4.95l-29.24-28.96.03.03ZM86.19,52.22l-.83,34.05h-25.74l26.57-34.05ZM34.53,122.64l13.29-19.58h36.19l-.48,33.7,110.9,64.95L34.53,122.64Z"/>
      <path d="M194.42,196.78v4.95l194.42-65.43-64.6-86.05,39.86-10.14-38.2-18.44-58.65,15.78,1.66,85.53-45.29,44.84-29.24,28.96h.03ZM329.23,86.27h-25.74l-.83-34.05,26.57,34.05ZM194.42,201.7l110.9-64.95-.48-33.7h36.19l13.29,19.58s-159.89,79.06-159.89,79.06Z"/>
    </g>
    <path d="M241.13,105.99l-17.99-42.01,23.53-14.36.1-32.14-37.82-11.83-28.65,15.54L154.35.01l-43.15,21.9,33.08,9.34-1.07,98.54,20.28,20.14,25.5-25.22-9.1-11.28-.28-33.04,17.37,3.77,9.31,39.48,24.36,24.39,25.33-25.85-14.88-16.12.03-.07ZM210.68,61.74l-30.03,4.95,1.04-35.47,29.51,5.99-.52,24.57v-.03Z"/>
    <g>
      <path class="cls-1" d="M167.99,158.41l8.2-8.17,2.08,2.08-5.71,5.67,2.18,2.18,4.95-4.91,1.97,1.97-4.95,4.91,2.53,2.56,5.81-5.78,2.15,2.15-8.3,8.27s-10.9-10.93-10.9-10.93Z"/>
      <path class="cls-1" d="M192.9,155.96c-.73.73-1.49,1.31-2.25,1.73s-1.49.69-2.25.8c-.73.1-1.45.03-2.15-.21s-1.35-.62-1.94-1.21l2.53-2.53c.66.52,1.31.73,1.97.62s1.35-.52,2.04-1.21c.24-.24.45-.52.62-.76s.31-.55.38-.83.07-.55,0-.83-.21-.52-.42-.73-.48-.38-.76-.42-.55,0-.9.1-.69.28-1.07.52-.83.48-1.31.8c-.66.42-1.28.76-1.9,1.11-.62.31-1.21.55-1.8.66s-1.18.07-1.73-.07-1.14-.52-1.7-1.11-.93-1.18-1.14-1.8-.24-1.28-.1-1.9c.1-.66.38-1.31.76-1.94.38-.66.9-1.28,1.49-1.87s1.21-1.07,1.87-1.45,1.28-.59,1.94-.69c.66-.1,1.28-.07,1.9.14.62.17,1.25.52,1.8,1.04l-2.46,2.46c-.48-.38-1.04-.52-1.59-.42-.55.1-1.11.42-1.66.93-.52.52-.83,1.04-.93,1.56s0,.93.35,1.28c.21.21.45.35.69.35s.55,0,.87-.14c.31-.1.69-.31,1.11-.55s.87-.55,1.42-.87c.59-.38,1.21-.73,1.8-1.04s1.21-.48,1.8-.59,1.21-.03,1.8.14c.59.17,1.18.55,1.76,1.14s.97,1.18,1.18,1.83.28,1.35.17,2.04-.35,1.38-.73,2.08c-.38.69-.9,1.35-1.52,1.97l.07-.14Z"/>
      <path class="cls-1" d="M186.29,140.18l9.03-9,2.11,2.15-3.25,3.25,8.75,8.82-2.53,2.49-8.75-8.82-3.25,3.22-2.11-2.15v.03Z"/>
      <path class="cls-1" d="M203,140.56l2.46-2.42,2.39,2.42-2.46,2.42-2.39-2.42Z"/>
      <path class="cls-1" d="M188.68,175.26l-2.42,2.42-1.59-1.59c.76-.8,1.21-1.59,1.42-2.46s0-1.73-.59-2.6l1.9-1.9,10.52,10.59-2.39,2.39-6.82-6.85h-.03Z"/>
      <path class="cls-1" d="M203.66,174.5c-.62.62-1.28,1.14-1.97,1.52-.69.38-1.35.62-2.01.73-.66.1-1.31.07-1.9-.1s-1.18-.52-1.66-1.04c-.62-.62-.97-1.35-1.07-2.15s.07-1.66.55-2.56h-.03c-.76.31-1.45.45-2.08.35-.62-.1-1.18-.42-1.7-.9-.42-.42-.73-.93-.9-1.45-.17-.55-.21-1.11-.14-1.7.07-.59.31-1.21.66-1.8.35-.62.8-1.21,1.38-1.8s1.18-1.04,1.8-1.38c.62-.35,1.21-.55,1.76-.66.59-.1,1.14-.03,1.66.14.52.17,1,.48,1.45.93.48.48.76,1.04.87,1.66s0,1.31-.38,2.08h.03c.9-.45,1.73-.62,2.56-.52.83.14,1.52.48,2.15,1.11.52.52.87,1.11,1.07,1.73s.24,1.28.14,1.94c-.1.66-.35,1.31-.73,2.01-.38.66-.87,1.31-1.52,1.94v-.07ZM201.86,172.7c.55-.55.87-1.18.93-1.8s-.14-1.18-.62-1.66c-.52-.52-1.07-.76-1.7-.73-.62.03-1.25.35-1.83.93s-.9,1.21-.97,1.83.17,1.21.69,1.73,1.04.73,1.66.66,1.25-.38,1.83-.97ZM197.05,167.93c.52-.52.8-1.04.83-1.56.03-.52-.14-.97-.55-1.38s-.87-.62-1.38-.59c-.52,0-1.04.31-1.56.83s-.8,1.04-.83,1.56c-.03.52.14,1,.55,1.42s.87.59,1.38.55,1.04-.31,1.56-.83Z"/>
      <path class="cls-1" d="M212.59,165.61c-.59.59-1.21,1.04-1.87,1.42-.66.35-1.31.59-1.97.69-.66.1-1.28.07-1.94-.1-.62-.17-1.21-.48-1.73-.93l2.39-2.35c.48.31.97.42,1.52.35s1.07-.38,1.59-.87c.55-.55.83-1.18.83-1.83,0-.69-.28-1.28-.8-1.83s-1.18-.83-1.83-.8c-.66,0-1.25.31-1.76.8-.38.38-.62.76-.8,1.18-.14.42-.21.8-.17,1.14l-2.25,2.25-4.71-6.92,6.37-6.33,1.9,1.94-4.64,4.64,1.83,2.77h0c0-.55.07-1.04.24-1.52s.55-1,1.07-1.52c.48-.48,1-.87,1.63-1.11.59-.28,1.21-.42,1.83-.42s1.28.1,1.9.35,1.21.66,1.76,1.21.97,1.18,1.25,1.87.35,1.35.31,2.04-.24,1.38-.55,2.08c-.35.69-.83,1.35-1.42,1.94v-.1Z"/>
      <path class="cls-1" d="M221.48,156.75c-.59.59-1.21,1.04-1.87,1.42-.66.35-1.31.59-1.97.69-.66.1-1.28.07-1.94-.1-.62-.17-1.21-.48-1.73-.93l2.39-2.35c.48.31.97.42,1.52.35s1.07-.38,1.59-.87c.55-.55.83-1.18.83-1.83,0-.69-.28-1.28-.8-1.83s-1.18-.83-1.83-.8c-.66,0-1.25.31-1.76.8-.38.38-.62.76-.8,1.18-.14.42-.21.8-.17,1.14l-2.25,2.25-4.71-6.92,6.37-6.33,1.9,1.94-4.64,4.64,1.83,2.77h0c0-.55.07-1.04.24-1.52s.55-1,1.07-1.52c.48-.48,1-.87,1.63-1.11.59-.28,1.21-.42,1.83-.42s1.28.1,1.9.35,1.21.66,1.76,1.21c.55.55.97,1.18,1.25,1.87s.35,1.35.31,2.04-.24,1.38-.55,2.08c-.35.69-.83,1.35-1.42,1.94v-.1Z"/>
    </g>
  </g>
</svg>