<?xml version="1.0" encoding="UTF-8"?>
<svg id="Camada_2" data-name="Camada 2" xmlns="http://www.w3.org/2000/svg" viewBox="0 0 112.39 58.3">
  <defs>
    <style>
      .cls-1, .cls-2 {
        stroke-width: 0px;
      }

      .cls-2 {
        fill: #1d1d1b;
      }
    </style>
  </defs>
  <g id="Camada_1-2" data-name="Camada 1">
    <g>
      <path class="cls-1" d="m47.75,48.51l-13.09-12.96.48-24.72-16.95-4.56-11.04,5.33,11.52,2.93L0,39.39l56.19,18.91v-1.43s-8.45-8.37-8.45-8.37ZM24.91,15.1l-.24,9.84h-7.44l7.68-9.84Zm-14.93,20.35l3.84-5.66h10.46l-.14,9.74,32.05,18.77L9.98,35.45Z"/>
      <path class="cls-1" d="m56.19,56.88v1.43s56.19-18.91,56.19-18.91l-18.67-24.87,11.52-2.93-11.04-5.33-16.95,4.56.48,24.72-13.09,12.96-8.45,8.37Zm38.96-31.94h-7.44s-.24-9.84-.24-9.84l7.68,9.84Zm-38.96,33.36l32.05-18.77-.14-9.74h10.46s3.84,5.66,3.84,5.66l-46.21,22.85Z"/>
    </g>
    <path class="cls-1" d="m69.69,30.64l-5.2-12.14,6.8-4.15.03-9.29-10.93-3.42-8.28,4.49-7.5-6.12-12.47,6.33,9.56,2.7-.31,28.48,5.86,5.82,7.37-7.29-2.63-3.26-.08-9.55,5.02,1.09,2.69,11.41,7.04,7.05,7.32-7.47-4.3-4.66Zm-8.8-12.79l-8.68,1.43.3-10.25,8.53,1.73-.15,7.1Z"/>
    <g>
      <path class="cls-2" d="m48.55,45.79l2.37-2.36.6.6-1.65,1.64.63.63,1.43-1.42.57.57-1.43,1.42.73.74,1.68-1.67.62.62-2.4,2.39-3.15-3.16Z"/>
      <path class="cls-2" d="m55.75,45.08c-.21.21-.43.38-.65.5-.22.12-.43.2-.65.23-.21.03-.42.01-.62-.06-.2-.07-.39-.18-.56-.35l.73-.73c.19.15.38.21.57.18s.39-.15.59-.35c.07-.07.13-.15.18-.22s.09-.16.11-.24c.02-.08.02-.16,0-.24-.02-.08-.06-.15-.12-.21s-.14-.11-.22-.12c-.08-.01-.16,0-.26.03s-.2.08-.31.15c-.11.07-.24.14-.38.23-.19.12-.37.22-.55.32-.18.09-.35.16-.52.19s-.34.02-.5-.02-.33-.15-.49-.32-.27-.34-.33-.52c-.06-.18-.07-.37-.03-.55.03-.19.11-.38.22-.56.11-.19.26-.37.43-.54s.35-.31.54-.42.37-.17.56-.2c.19-.03.37-.02.55.04.18.05.36.15.52.3l-.71.71c-.14-.11-.3-.15-.46-.12-.16.03-.32.12-.48.27-.15.15-.24.3-.27.45-.03.15,0,.27.1.37.06.06.13.1.2.1s.16,0,.25-.04c.09-.03.2-.09.32-.16.12-.07.25-.16.41-.25.17-.11.35-.21.52-.3s.35-.14.52-.17.35-.01.52.04c.17.05.34.16.51.33s.28.34.34.53c.06.19.08.39.05.59s-.1.4-.21.6c-.11.2-.26.39-.44.57Z"/>
      <path class="cls-2" d="m53.84,40.52l2.61-2.6.61.62-.94.94,2.53,2.55-.73.72-2.53-2.55-.94.93-.61-.62Z"/>
      <path class="cls-2" d="m58.67,40.63l.71-.7.69.7-.71.7-.69-.7Z"/>
      <path class="cls-2" d="m54.53,50.66l-.7.7-.46-.46c.22-.23.35-.46.41-.71.06-.25,0-.5-.17-.75l.55-.55,3.04,3.06-.69.69-1.97-1.98Z"/>
      <path class="cls-2" d="m58.86,50.44c-.18.18-.37.33-.57.44-.2.11-.39.18-.58.21-.19.03-.38.02-.55-.03s-.34-.15-.48-.3c-.18-.18-.28-.39-.31-.62s.02-.48.16-.74h-.01c-.22.09-.42.13-.6.1-.18-.03-.34-.12-.49-.26-.12-.12-.21-.27-.26-.42-.05-.16-.06-.32-.04-.49.02-.17.09-.35.19-.52.1-.18.23-.35.4-.52s.34-.3.52-.4c.18-.1.35-.16.51-.19.17-.03.33-.01.48.04.15.05.29.14.42.27.14.14.22.3.25.48.03.18,0,.38-.11.6h.01c.26-.13.5-.18.74-.15.24.04.44.14.62.32.15.15.25.32.31.5.06.18.07.37.04.56-.03.19-.1.38-.21.58-.11.19-.25.38-.44.56Zm-.52-.52c.16-.16.25-.34.27-.52.02-.18-.04-.34-.18-.48-.15-.15-.31-.22-.49-.21-.18.01-.36.1-.53.27s-.26.35-.28.53.05.35.2.5.3.21.48.19c.18-.02.36-.11.53-.28Zm-1.39-1.38c.15-.15.23-.3.24-.45.01-.15-.04-.28-.16-.4s-.25-.18-.4-.17c-.15,0-.3.09-.45.24s-.23.3-.24.45c-.01.15.04.29.16.41s.25.17.4.16c.15-.01.3-.09.45-.24Z"/>
      <path class="cls-2" d="m61.44,47.87c-.17.17-.35.3-.54.41-.19.1-.38.17-.57.2-.19.03-.37.02-.56-.03-.18-.05-.35-.14-.5-.27l.69-.68c.14.09.28.12.44.1.16-.02.31-.11.46-.25.16-.16.24-.34.24-.53,0-.2-.08-.37-.23-.53s-.34-.24-.53-.23c-.19,0-.36.09-.51.23-.11.11-.18.22-.23.34-.04.12-.06.23-.05.33l-.65.65-1.36-2,1.84-1.83.55.56-1.34,1.34.53.8h0c0-.16.02-.3.07-.44.05-.14.16-.29.31-.44.14-.14.29-.25.47-.32.17-.08.35-.12.53-.12.18,0,.37.03.55.1.18.07.35.19.51.35s.28.34.36.54.1.39.09.59-.07.4-.16.6c-.1.2-.24.39-.41.56Z"/>
      <path class="cls-2" d="m64.01,45.31c-.17.17-.35.3-.54.41-.19.1-.38.17-.57.2-.19.03-.37.02-.56-.03-.18-.05-.35-.14-.5-.27l.69-.68c.14.09.28.12.44.1.16-.02.31-.11.46-.25.16-.16.24-.34.24-.53,0-.2-.08-.37-.23-.53s-.34-.24-.53-.23c-.19,0-.36.09-.51.23-.11.11-.18.22-.23.34-.04.12-.06.23-.05.33l-.65.65-1.36-2,1.84-1.83.55.56-1.34,1.34.53.8h0c0-.16.02-.3.07-.44.05-.14.16-.29.31-.44.14-.14.29-.25.47-.32.17-.08.35-.12.53-.12.18,0,.37.03.55.1.18.07.35.19.51.35s.28.34.36.54.1.39.09.59-.07.4-.16.6c-.1.2-.24.39-.41.56Z"/>
    </g>
  </g>
</svg>