<?xml version="1.0" encoding="UTF-8"?>
<svg id="Layer_2" data-name="Layer 2" xmlns="http://www.w3.org/2000/svg" viewBox="0 0 538.2 226.2">
  <defs>
    <style>
      .cls-1 {
        fill: none;
      }

      .cls-1, .cls-2 {
        stroke-width: 0px;
      }

      .cls-3 {
        stroke: #f26522;
        stroke-miterlimit: 10;
        stroke-width: .5px;
      }

      .cls-3, .cls-2 {
        fill: #231f20;
      }
    </style>
  </defs>
  <g id="Layer_1-2" data-name="Layer 1">
    <g>
      <g>
        <polygon class="cls-2" points="252.5 152.95 245.86 146.31 225.94 146.31 225.94 166.23 232.58 166.23 239.22 159.59 245.86 159.59 245.86 166.23 245.86 172.86 245.86 179.5 245.86 186.14 239.22 186.14 232.58 179.5 225.94 179.5 225.94 199.41 245.86 199.42 252.5 192.78 259.14 192.78 259.14 225.97 206.03 225.97 206.03 206.05 212.67 199.42 212.67 179.5 219.31 172.86 212.67 166.23 212.67 146.31 206.04 139.67 206.04 119.76 259.14 119.76 259.14 152.95 252.5 152.95"/>
        <path class="cls-2" d="M305.6,179.5l6.64,6.64v39.82h19.91s0-19.91,0-19.91l-6.64-6.64v-19.91l-6.64-6.64,6.64-6.64v-39.83l-6.64-6.64h-46.47s0,19.91,0,19.91l6.64,6.64v19.91l6.64,6.64-6.64,6.64v19.91l-6.64,6.64v19.91h26.55v-19.91l-6.64-6.64v-19.91M312.23,159.58l-6.63,6.65h-13.28v-19.91s19.91,0,19.91,0v6.64s0,6.63,0,6.63Z"/>
        <path class="cls-2" d="M391.9,119.76h-46.48v19.91l6.65,6.64v19.91l6.64,6.64-6.64,6.64v19.89l-6.65,6.67v19.9h46.48l6.64-6.62v-92.93l-6.64-6.64ZM385.26,199.42h-19.91v-53.1h19.91s0,53.1,0,53.1Z"/>
        <path class="cls-2" d="M126.37,166.23v-39.83l-6.64-6.64h-39.83s-6.64,6.64-6.64,6.64v39.83l6.64,6.64-6.64,6.64v39.83l6.64,6.64h39.83s6.64-6.64,6.64-6.64v-39.83s-6.64-6.64-6.64-6.64l6.64-6.64ZM113.1,199.42h-26.55v-53.1h26.55v53.1Z"/>
        <path class="cls-2" d="M537.93,166.23v-39.83l-6.64-6.63h-39.83l-6.63,6.63v39.83l6.63,6.63-6.63,6.65v39.83l6.63,6.64h39.83s6.64-6.64,6.64-6.64v-39.83l-6.64-6.65,6.64-6.63ZM524.66,199.41h-26.56v-53.1s26.56,0,26.56,0v53.1Z"/>
        <polygon class="cls-2" points="139.65 119.76 192.75 119.76 192.75 159.59 186.12 159.59 179.48 152.95 179.48 146.31 172.84 146.31 172.84 166.23 166.2 172.86 172.84 179.5 172.84 199.42 179.48 206.05 179.48 225.97 152.93 225.97 152.93 206.05 159.56 199.42 159.56 179.5 166.2 172.86 159.56 166.23 159.56 146.31 152.93 146.31 152.93 152.95 146.29 159.59 139.65 159.59 139.65 119.76"/>
        <g>
          <path class="cls-2" d="M445,225.97h26.56v-19.91s-6.64-6.64-6.64-6.64l-3.71-19.91-6.65-6.63,4.56-4.56-5.9-31.36-2.27-12.04-.97-5.15h-28.21v19.91s6.64,6.64,6.64,6.64h0l-4.13,22.01,4.59,4.55-6.65,6.63-3.77,19.92-6.64,6.64v19.91h26.55v-19.91l-6.64-6.64,3.32-19.91h13.28l3.32,19.91-6.64,6.64v19.91ZM445,166.23h-6.64v-19.91h6.64v19.91Z"/>
          <polygon class="cls-2" points="458.2 136.95 462.65 131.22 471.55 131.22 471.55 119.76 461.33 119.76 457.31 124.91 450.95 124.91 453.21 136.95 458.2 136.95"/>
        </g>
        <path class="cls-2" d="M33.44,179.5l6.64,6.64v39.83h19.91v-19.91l-6.64-6.64v-19.91s-6.63-6.64-6.63-6.64l6.63-6.64v-39.83l-6.64-6.64H.25s0,19.91,0,19.91l6.64,6.64v19.91l6.64,6.64-6.64,6.64v19.91l-6.64,6.64v19.91h26.55v-19.91l-6.64-6.64v-19.91M40.08,159.59l-6.64,6.63h-13.28s0-19.91,0-19.91h13.28s6.63,0,6.63,0v13.28Z"/>
        <path class="cls-2" d="M124,46.74V8.61c0-4.61-3.73-8.34-8.33-8.34h-36.42c-4.61,0-8.34,3.73-8.34,8.34v38.13l-6.64,6.64,6.64,6.64v38.13c0,4.61,3.73,8.34,8.34,8.34h36.42c4.61,0,8.33-3.73,8.33-8.34v-38.13l6.64-6.64-6.64-6.64ZM84,79.93V26.83h26.57v53.1h-26.57Z"/>
        <path class="cls-2" d="M442.25,11.28c.52,0,1.68.39,3.48,1.19,1.78.79,3.33,1.18,4.64,1.18,5.14,0,7.73-2.39,7.73-8.26V.27h-4.46c-.17,2.02-1.25,3.03-3.27,3.03-.52,0-1.93-.39-3.72-1.19-1.79-.79-3.64-1.19-4.95-1.19-2.05,0-3.43.47-4.67,1.42l-.42-2.07h-26.55v26.56h4.67l-3.65,19.91-6.67,6.64,4.24,6.64-3.65,19.92h-6.63v26.55h26.55v-26.55h-6.57l3.69-19.92h12.22l3.7,19.92h-6.42v26.55h26.55v-26.55h-6.77l-3.68-19.94,4.33-6.61-6.64-6.64-.11.1-6.13-33.35v.03c.38-1.5,1.43-2.23,3.15-2.23ZM424.38,46.73l3.86-19.91,3.68,19.91h-7.54Z"/>
        <polygon class="cls-2" points="174.86 40.1 174.86 26.82 168.23 26.82 168.23 46.73 174.87 53.37 168.23 60.01 168.23 79.93 174.86 79.93 174.86 106.48 148.31 106.48 148.31 79.93 154.95 79.93 154.95 60.01 148.31 53.37 154.95 46.73 154.95 26.82 148.33 26.82 148.33 40.1 135.05 40.1 135.05 .27 188.14 .27 188.14 40.1 174.86 40.1"/>
        <polygon class="cls-2" points="238.97 39.46 238.97 26.82 219.13 26.82 219.13 46.73 225.76 46.73 225.76 39.62 232.39 39.62 232.39 67.26 225.76 67.26 225.76 60.01 219.13 60.01 219.13 79.93 238.97 79.93 238.97 67.26 252.25 67.26 252.25 106.48 199.16 106.48 199.23 79.93 205.85 79.93 205.85 60.01 199.22 53.37 205.85 46.73 205.85 26.82 199.23 26.82 199.23 .27 252.32 .27 252.32 39.46 238.97 39.46"/>
        <path class="cls-2" d="M316.51,79.93v-19.92h-.07c0-3.64-2.99-6.59-6.68-6.59,3.69,0,6.74-2.95,6.74-6.59V8.6c0-4.6-3.73-8.34-8.33-8.34h-44.76v26.56h6.62v19.91l-6.64,6.64,6.64,6.64v19.92h-6.62v26.55h26.55v-26.55h-6.64v-19.92h19.76c0,.3.02.59.06.88v37.25c0,4.6,3.74,8.34,8.34,8.34h11.66v-26.55h-6.64ZM303.16,46.73h-19.83v-19.91h19.83v19.91Z"/>
        <path class="cls-2" d="M379.02.27h-44.75v26.56h6.62v19.91l-6.64,6.64,6.64,6.64v19.92h-6.62v26.55h44.75c4.61,0,8.33-3.73,8.33-8.34V8.6c0-4.6-3.73-8.34-8.33-8.34ZM374,79.93h-19.83V26.82h19.83v53.11Z"/>
        <path class="cls-2" d="M53.35,79.93v-19.92h-.07c0-3.64-2.99-6.59-6.68-6.59,3.69,0,6.74-2.95,6.74-6.6V8.6c0-4.6-3.73-8.34-8.33-8.34H.27v26.56h6.62v19.91L.25,53.37l6.64,6.64v19.92H.27v26.55h26.55v-26.55h-6.64v-19.92h19.76c0,.3.02.59.06.88v37.25c0,4.6,3.74,8.34,8.34,8.34h11.66v-26.55h-6.64ZM40,46.73h-19.83v-19.91h19.83v19.91Z"/>
        <path class="cls-2" d="M522.43,46.74V8.61c0-4.61-3.73-8.34-8.33-8.34h-36.43c-4.6,0-8.34,3.73-8.34,8.34v38.13l-6.64,6.64,6.64,6.64v38.13c0,4.61,3.74,8.34,8.34,8.34h36.43c4.6,0,8.33-3.73,8.33-8.34v-38.13l6.64-6.64-6.64-6.64ZM509.01,79.93h-26.57V26.83h26.57v53.1Z"/>
      </g>
      <g>
        <rect class="cls-1" x="438.36" y="146.29" width="6.64" height="19.91"/>
        <line class="cls-3" x1=".27" y1=".25" x2="537.95" y2=".25"/>
        <line class="cls-3" x1=".27" y1="6.89" x2="537.95" y2="6.89"/>
        <line class="cls-3" x1=".27" y1="13.53" x2="537.95" y2="13.53"/>
        <line class="cls-3" x1=".27" y1="20.16" x2="537.95" y2="20.16"/>
        <line class="cls-3" x1=".26" y1="26.8" x2="537.95" y2="26.8"/>
        <line class="cls-3" x1=".26" y1="33.44" x2="537.95" y2="33.44"/>
        <line class="cls-3" x1=".26" y1="40.08" x2="537.95" y2="40.08"/>
        <line class="cls-3" x1=".26" y1="46.72" x2="537.95" y2="46.72"/>
        <line class="cls-3" x1=".26" y1="53.36" x2="537.95" y2="53.36"/>
        <line class="cls-3" x1=".26" y1="59.99" x2="537.95" y2="59.99"/>
        <line class="cls-3" x1=".26" y1="66.63" x2="537.95" y2="66.63"/>
        <line class="cls-3" x1=".26" y1="73.27" x2="537.95" y2="73.27"/>
        <line class="cls-3" x1=".26" y1="79.91" x2="537.95" y2="79.91"/>
        <line class="cls-3" x1=".26" y1="86.55" x2="537.95" y2="86.55"/>
        <line class="cls-3" x1=".26" y1="93.19" x2="537.95" y2="93.19"/>
        <line class="cls-3" x1=".26" y1="99.82" x2="537.95" y2="99.82"/>
        <line class="cls-3" x1=".26" y1="106.46" x2="537.95" y2="106.46"/>
        <line class="cls-3" x1=".26" y1="113.1" x2="537.95" y2="113.1"/>
        <line class="cls-3" x1=".26" y1="119.74" x2="537.95" y2="119.74"/>
        <line class="cls-3" x1=".26" y1="126.38" x2="537.94" y2="126.38"/>
        <line class="cls-3" x1=".26" y1="133.02" x2="537.94" y2="133.02"/>
        <line class="cls-3" x1=".26" y1="139.65" x2="537.94" y2="139.65"/>
        <line class="cls-3" x1=".26" y1="146.29" x2="537.94" y2="146.29"/>
        <line class="cls-3" x1=".26" y1="152.93" x2="537.94" y2="152.93"/>
        <line class="cls-3" x1=".26" y1="159.57" x2="537.94" y2="159.57"/>
        <line class="cls-3" x1=".26" y1="166.21" x2="537.94" y2="166.21"/>
        <line class="cls-3" x1=".26" y1="172.85" x2="537.94" y2="172.85"/>
        <line class="cls-3" x1=".26" y1="179.48" x2="537.94" y2="179.48"/>
        <line class="cls-3" x1=".26" y1="186.12" x2="537.94" y2="186.12"/>
        <line class="cls-3" x1=".26" y1="192.76" x2="537.94" y2="192.76"/>
        <line class="cls-3" x1=".25" y1="199.4" x2="537.94" y2="199.4"/>
        <line class="cls-3" x1=".25" y1="206.04" x2="537.94" y2="206.04"/>
        <line class="cls-3" x1=".25" y1="212.68" x2="537.94" y2="212.68"/>
        <line class="cls-3" x1=".25" y1="219.31" x2="537.94" y2="219.31"/>
        <line class="cls-3" x1=".25" y1="225.95" x2="537.94" y2="225.95"/>
        <line class="cls-3" x1=".25" y1=".25" x2=".25" y2="225.94"/>
        <line class="cls-3" x1="6.89" y1=".25" x2="6.89" y2="225.93"/>
        <line class="cls-3" x1="13.53" y1=".25" x2="13.53" y2="225.93"/>
        <line class="cls-3" x1="20.16" y1=".25" x2="20.16" y2="225.93"/>
        <line class="cls-3" x1="26.8" y1=".25" x2="26.8" y2="225.93"/>
        <line class="cls-3" x1="33.44" y1=".25" x2="33.44" y2="225.93"/>
        <line class="cls-3" x1="40.08" y1=".25" x2="40.08" y2="225.93"/>
        <line class="cls-3" x1="46.72" y1=".25" x2="46.72" y2="225.93"/>
        <line class="cls-3" x1="53.36" y1=".25" x2="53.36" y2="225.93"/>
        <line class="cls-3" x1="59.99" y1=".25" x2="59.99" y2="225.93"/>
        <line class="cls-3" x1="66.63" y1=".25" x2="66.63" y2="225.93"/>
        <line class="cls-3" x1="73.27" y1=".25" x2="73.27" y2="225.93"/>
        <line class="cls-3" x1="79.91" y1=".25" x2="79.91" y2="225.93"/>
        <line class="cls-3" x1="86.55" y1=".25" x2="86.55" y2="225.93"/>
        <line class="cls-3" x1="93.19" y1=".24" x2="93.19" y2="225.93"/>
        <line class="cls-3" x1="99.82" y1=".24" x2="99.82" y2="225.93"/>
        <line class="cls-3" x1="106.46" y1=".24" x2="106.46" y2="225.93"/>
        <line class="cls-3" x1="113.1" y1=".24" x2="113.1" y2="225.93"/>
        <line class="cls-3" x1="119.74" y1=".24" x2="119.74" y2="225.93"/>
        <line class="cls-3" x1="126.38" y1=".24" x2="126.38" y2="225.93"/>
        <line class="cls-3" x1="133.02" y1=".24" x2="133.02" y2="225.93"/>
        <line class="cls-3" x1="139.65" y1=".24" x2="139.65" y2="225.93"/>
        <line class="cls-3" x1="146.29" y1=".24" x2="146.29" y2="225.93"/>
        <line class="cls-3" x1="152.93" y1=".24" x2="152.93" y2="225.93"/>
        <line class="cls-3" x1="159.57" y1=".24" x2="159.57" y2="225.93"/>
        <line class="cls-3" x1="166.21" y1=".24" x2="166.21" y2="225.93"/>
        <line class="cls-3" x1="172.85" y1=".24" x2="172.85" y2="225.93"/>
        <line class="cls-3" x1="179.48" y1=".24" x2="179.48" y2="225.93"/>
        <line class="cls-3" x1="186.12" y1=".24" x2="186.12" y2="225.92"/>
        <line class="cls-3" x1="192.76" y1=".24" x2="192.76" y2="225.92"/>
        <line class="cls-3" x1="199.4" y1=".24" x2="199.4" y2="225.92"/>
        <line class="cls-3" x1="206.04" y1=".24" x2="206.04" y2="225.92"/>
        <line class="cls-3" x1="212.68" y1=".24" x2="212.68" y2="225.92"/>
        <line class="cls-3" x1="219.31" y1=".24" x2="219.31" y2="225.92"/>
        <line class="cls-3" x1="225.95" y1=".24" x2="225.95" y2="225.92"/>
        <line class="cls-3" x1="232.59" y1=".24" x2="232.59" y2="225.92"/>
        <line class="cls-3" x1="239.23" y1=".24" x2="239.23" y2="225.92"/>
        <line class="cls-3" x1="245.87" y1=".24" x2="245.87" y2="225.92"/>
        <line class="cls-3" x1="252.51" y1=".24" x2="252.51" y2="225.92"/>
        <line class="cls-3" x1="259.14" y1=".24" x2="259.14" y2="225.92"/>
        <line class="cls-3" x1="265.78" y1=".24" x2="265.78" y2="225.92"/>
        <line class="cls-3" x1="272.42" y1=".23" x2="272.42" y2="225.92"/>
        <line class="cls-3" x1="279.06" y1=".23" x2="279.06" y2="225.92"/>
        <line class="cls-3" x1="285.7" y1=".23" x2="285.7" y2="225.92"/>
        <line class="cls-3" x1="292.34" y1=".23" x2="292.34" y2="225.92"/>
        <line class="cls-3" x1="298.97" y1=".23" x2="298.97" y2="225.92"/>
        <line class="cls-3" x1="305.61" y1=".23" x2="305.61" y2="225.92"/>
        <line class="cls-3" x1="312.25" y1=".23" x2="312.25" y2="225.92"/>
        <line class="cls-3" x1="318.89" y1=".23" x2="318.89" y2="225.92"/>
        <line class="cls-3" x1="325.53" y1=".23" x2="325.53" y2="225.92"/>
        <line class="cls-3" x1="332.16" y1=".23" x2="332.16" y2="225.92"/>
        <line class="cls-3" x1="338.8" y1=".23" x2="338.8" y2="225.92"/>
        <line class="cls-3" x1="345.44" y1=".23" x2="345.44" y2="225.92"/>
        <line class="cls-3" x1="352.08" y1=".23" x2="352.08" y2="225.92"/>
        <line class="cls-3" x1="358.72" y1=".23" x2="358.72" y2="225.92"/>
        <line class="cls-3" x1="365.36" y1=".23" x2="365.36" y2="225.91"/>
        <line class="cls-3" x1="371.99" y1=".23" x2="371.99" y2="225.91"/>
        <line class="cls-3" x1="378.63" y1=".23" x2="378.63" y2="225.91"/>
        <line class="cls-3" x1="385.27" y1=".23" x2="385.27" y2="225.91"/>
        <line class="cls-3" x1="391.91" y1=".23" x2="391.91" y2="225.91"/>
        <line class="cls-3" x1="398.55" y1=".23" x2="398.55" y2="225.91"/>
        <line class="cls-3" x1="405.19" y1=".23" x2="405.19" y2="225.91"/>
        <line class="cls-3" x1="411.82" y1=".23" x2="411.82" y2="225.91"/>
        <line class="cls-3" x1="418.46" y1=".23" x2="418.46" y2="225.91"/>
        <line class="cls-3" x1="425.1" y1=".23" x2="425.1" y2="225.91"/>
        <line class="cls-3" x1="431.74" y1=".23" x2="431.74" y2="225.91"/>
        <line class="cls-3" x1="438.38" y1=".23" x2="438.38" y2="225.91"/>
        <line class="cls-3" x1="445.02" y1=".23" x2="445.02" y2="225.91"/>
        <line class="cls-3" x1="451.65" y1=".22" x2="451.65" y2="225.91"/>
        <line class="cls-3" x1="458.29" y1=".22" x2="458.29" y2="225.91"/>
        <line class="cls-3" x1="464.93" y1=".22" x2="464.93" y2="225.91"/>
        <line class="cls-3" x1="471.57" y1=".22" x2="471.57" y2="225.91"/>
        <line class="cls-3" x1="478.21" y1=".22" x2="478.21" y2="225.91"/>
        <line class="cls-3" x1="484.85" y1=".22" x2="484.85" y2="225.91"/>
        <line class="cls-3" x1="491.48" y1=".22" x2="491.48" y2="225.91"/>
        <line class="cls-3" x1="498.12" y1=".22" x2="498.12" y2="225.91"/>
        <line class="cls-3" x1="504.76" y1=".22" x2="504.76" y2="225.91"/>
        <line class="cls-3" x1="511.4" y1=".22" x2="511.4" y2="225.91"/>
        <line class="cls-3" x1="518.04" y1=".22" x2="518.04" y2="225.91"/>
        <line class="cls-3" x1="524.68" y1=".22" x2="524.68" y2="225.91"/>
        <line class="cls-3" x1="531.31" y1=".22" x2="531.31" y2="225.91"/>
        <line class="cls-3" x1="537.95" y1=".22" x2="537.95" y2="225.91"/>
      </g>
    </g>
  </g>
</svg>